<?xml version="1.0" ?><!DOCTYPE svg  PUBLIC '-//W3C//DTD SVG 1.1//EN'  'http://www.w3.org/Graphics/SVG/1.1/DTD/svg11.dtd'><svg enable-background="new 0 0 100 100" height="100px" id="Layer_1" version="1.1" viewBox="0 0 100 100" width="100px" xml:space="preserve" xmlns="http://www.w3.org/2000/svg" xmlns:xlink="http://www.w3.org/1999/xlink"><g><path d="M51.703,4C26.327,4,5.682,24.646,5.682,50.022c0,25.376,20.646,46.021,46.021,46.021   c25.377,0,46.022-20.645,46.022-46.021C97.726,24.646,77.08,4,51.703,4z M51.703,94.044c-24.273,0-44.021-19.748-44.021-44.021   C7.682,25.749,27.43,6,51.703,6c24.274,0,44.022,19.749,44.022,44.022C95.726,74.296,75.978,94.044,51.703,94.044z" fill="#FFF"/><path d="M70.078,25.048h-27.27c-0.553,0-1,0.448-1,1v15.008c0,0.552,0.447,1,1,1h1.475   c0.225,0,0.442-0.076,0.619-0.214c1.992-1.57,4.384-2.4,6.914-2.4s4.921,0.83,6.913,2.4c0.177,0.139,0.395,0.214,0.619,0.214   h16.362c0.553,0,1-0.448,1-1V31.68C76.711,28.023,73.735,25.048,70.078,25.048z M74.711,40.056H59.688   c-2.291-1.711-5.005-2.614-7.871-2.614c-2.867,0-5.581,0.903-7.872,2.614h-0.136V27.048h26.27c2.555,0,4.633,2.078,4.633,4.632   V40.056z" fill="#FFF"/><path d="M69.135,28.625h-4.922c-1.442,0-2.616,1.175-2.616,2.619v4.921c0,1.442,1.174,2.616,2.616,2.616h4.922   c1.443,0,2.617-1.174,2.617-2.616v-4.921C71.752,29.8,70.578,28.625,69.135,28.625z M69.752,36.165c0,0.34-0.277,0.616-0.617,0.616   h-4.922c-0.34,0-0.616-0.276-0.616-0.616v-4.921c0-0.341,0.276-0.619,0.616-0.619h4.922c0.34,0,0.617,0.278,0.617,0.619V36.165z" fill="#FFF"/><path d="M51.816,59.406c4.831,0,8.762-3.932,8.762-8.765c0-4.833-3.931-8.764-8.762-8.764   c-4.832,0-8.764,3.931-8.764,8.764C43.053,55.475,46.984,59.406,51.816,59.406z M51.816,43.878c3.729,0,6.762,3.034,6.762,6.764   c0,3.73-3.033,6.765-6.762,6.765c-3.729,0-6.764-3.035-6.764-6.765C45.053,46.912,48.087,43.878,51.816,43.878z" fill="#FFF"/><path d="M32.886,42.056h2.481c0.553,0,1-0.448,1-1V26.048c0-0.552-0.447-1-1-1h-2.049   c-0.173,0-0.344,0.013-0.514,0.027c-0.52,0.042-0.919,0.476-0.919,0.997v14.984C31.886,41.608,32.333,42.056,32.886,42.056z    M33.886,27.048h0.481v13.008h-0.481V27.048z" fill="#FFF"/><path d="M27.688,42.056h2.717c0.553,0,1-0.448,1-1V26.866c0-0.361-0.194-0.694-0.51-0.872   c-0.314-0.175-0.7-0.171-1.009,0.017c-2.003,1.216-3.198,3.335-3.198,5.668v9.376C26.688,41.608,27.135,42.056,27.688,42.056z    M28.688,31.68c0-0.898,0.254-1.751,0.717-2.478v10.854h-0.717V31.68z" fill="#FFF"/><path d="M37.847,42.056h2.481c0.553,0,1-0.448,1-1V26.048c0-0.552-0.447-1-1-1h-2.481c-0.553,0-1,0.448-1,1v15.008   C36.847,41.608,37.294,42.056,37.847,42.056z M38.847,27.048h0.481v13.008h-0.481V27.048z" fill="#FFF"/><path d="M75.711,43.979H62.615c-0.351,0-0.675,0.183-0.855,0.483c-0.182,0.3-0.192,0.672-0.029,0.982   c0.854,1.624,1.286,3.373,1.286,5.198c0,6.176-5.024,11.201-11.2,11.201c-6.177,0-11.201-5.025-11.201-11.201   c0-1.829,0.433-3.578,1.287-5.197c0.163-0.31,0.152-0.683-0.028-0.983c-0.181-0.3-0.506-0.483-0.856-0.483h-13.33   c-0.553,0-1,0.448-1,1v23.463c0,3.656,2.975,6.631,6.631,6.631h36.76c3.657,0,6.633-2.975,6.633-6.631V44.979   C76.711,44.426,76.264,43.979,75.711,43.979z M74.711,68.441c0,2.553-2.078,4.631-4.633,4.631h-36.76   c-2.554,0-4.631-2.078-4.631-4.631V45.979h10.784c-0.563,1.486-0.856,3.072-0.856,4.663c0,7.279,5.922,13.201,13.201,13.201   c7.278,0,13.2-5.922,13.2-13.201c0-1.588-0.294-3.174-0.857-4.663h10.552V68.441z" fill="#FFF"/></g></svg>